<svg id="Capa_1" data-name="Capa 1" xmlns="http://www.w3.org/2000/svg" viewBox="0 0 16 16"><defs><style>.cls-1{fill:#fad201;}</style></defs><path class="cls-1" d="M16,8a8,8,0,1,1-2.34-5.66A8,8,0,0,1,16,8ZM8,4a1,1,0,0,0-.37.08.93.93,0,0,0-.49.54A.94.94,0,0,0,7.1,5L7.45,8.5a.5.5,0,0,0,.18.36.53.53,0,0,0,.74,0,.5.5,0,0,0,.18-.36L8.9,5a.94.94,0,0,0,0-.37.93.93,0,0,0-.49-.54A1,1,0,0,0,8,4Zm0,6a1.05,1.05,0,0,0-.71.29,1,1,0,0,0,0,1.42A1.05,1.05,0,0,0,8,12a1,1,0,0,0,.71-.29,1,1,0,0,0,0-1.42A1,1,0,0,0,8,10Z"/></svg>