<svg id="Capa_1" data-name="Capa 1" xmlns="http://www.w3.org/2000/svg" viewBox="0 0 31.07 14.02"><defs><style>.cls-1{fill:#fff;}</style></defs><path class="cls-1" d="M2.06,18.13H.5a2.07,2.07,0,0,1,1.32-2.42,5.32,5.32,0,0,1,2.68-.28,4,4,0,0,1,1,.22,2.11,2.11,0,0,1,1.48,2.09v5.43A2,2,0,0,1,5.4,25.39a5.08,5.08,0,0,1-3.62-.09,2,2,0,0,1-1.32-2A10.79,10.79,0,0,1,.51,22,2.06,2.06,0,0,1,2,20.26l2.55-.9c.61-.22.84-.58.83-1.34a1.09,1.09,0,0,0-.86-1.12,2.76,2.76,0,0,0-1.61,0,1.09,1.09,0,0,0-.76.93C2.09,17.93,2.08,18,2.06,18.13Zm3.26,2.51c-.21.09-.42.2-.64.28-.52.2-1,.38-1.58.57a1.42,1.42,0,0,0-1,1.82,1,1,0,0,0,.85.84,6.19,6.19,0,0,0,1.36,0,1,1,0,0,0,1-1C5.35,22.31,5.32,21.46,5.32,20.64Z" transform="translate(-0.46 -11.66)"/><path class="cls-1" d="M26.65,18.13H25.09a2.11,2.11,0,0,1,1.34-2.42,5.22,5.22,0,0,1,2.68-.28,3.61,3.61,0,0,1,1,.26,2,2,0,0,1,1.38,2c0,1.89,0,3.77,0,5.66a2,2,0,0,1-1.3,2,5.08,5.08,0,0,1-3.83,0,2,2,0,0,1-1.33-2,8.81,8.81,0,0,1,.09-1.46,2,2,0,0,1,1.39-1.55l2.55-.89A1.18,1.18,0,0,0,29.94,18a1.09,1.09,0,0,0-.89-1.12,3,3,0,0,0-1.56,0,1.13,1.13,0,0,0-.79,1c0,.06,0,.13,0,.19S26.66,18.1,26.65,18.13Zm3.27,2.5c-.17.08-.32.18-.49.24l-1.71.62a1.42,1.42,0,0,0-1,1.86,1,1,0,0,0,.83.8,6,6,0,0,0,1.41,0,1,1,0,0,0,.93-1C30,22.32,29.92,21.46,29.92,20.63Z" transform="translate(-0.46 -11.66)"/><path class="cls-1" d="M16.72,15.51h1.59v.33c0,2.38,0,4.76,0,7.13a2.33,2.33,0,0,1-2.23,2.57,5.76,5.76,0,0,1-2.19,0,4.06,4.06,0,0,1-1-.34,1.91,1.91,0,0,1-1.1-1.78c0-2.59,0-5.17,0-7.76a.44.44,0,0,1,0-.1h1.57v6.9c0,.22,0,.44,0,.65a1,1,0,0,0,.76,1A2.62,2.62,0,0,0,16,24a1,1,0,0,0,.71-1c0-2.37,0-4.74,0-7.11Z" transform="translate(-0.46 -11.66)"/><path class="cls-1" d="M10.17,25.47H8.62V11.66h1.55Z" transform="translate(-0.46 -11.66)"/><path class="cls-1" d="M24.27,15.42l-.35,1.35a10.75,10.75,0,0,0-1.17.08,1.2,1.2,0,0,0-1.17,1.32c0,2.32,0,4.64,0,7v.32H20v-.32c0-2.37,0-4.74,0-7.11A2.28,2.28,0,0,1,22,15.49,6.46,6.46,0,0,1,24.27,15.42Z" transform="translate(-0.46 -11.66)"/></svg>